<svg width="96" height="103" viewBox="0 0 96 103" fill="none" xmlns="http://www.w3.org/2000/svg">
<path d="M55.9 67.3772H39.9C30.6 67.3772 23 74.9715 23 84.2646V101.352H72.8001V84.2646C72.8001 74.9715 65.2 67.3772 55.9 67.3772Z" stroke="white" stroke-width="2" stroke-miterlimit="10" stroke-linejoin="bevel"/>
<path d="M47.8998 58.8835C54.0301 58.8835 58.9998 53.9176 58.9998 47.7919C58.9998 41.6661 54.0301 36.7002 47.8998 36.7002C41.7694 36.7002 36.7998 41.6661 36.7998 47.7919C36.7998 53.9176 41.7694 58.8835 47.8998 58.8835Z" stroke="white" stroke-width="2" stroke-miterlimit="10" stroke-linecap="round" stroke-linejoin="round"/>
<path d="M33.0996 82.4661V101.352" stroke="white" stroke-width="2" stroke-miterlimit="10" stroke-linejoin="bevel"/>
<path d="M62.2002 82.4661V101.352" stroke="white" stroke-width="2" stroke-miterlimit="10" stroke-linejoin="bevel"/>
<path d="M37.3 32.2036C36.2 32.0037 35.1 31.9038 33.9 31.9038H17.9C8.60001 31.8039 1 39.3982 1 48.6913V65.7786H22.1" stroke="white" stroke-width="2" stroke-miterlimit="10" stroke-linejoin="bevel"/>
<path d="M25.8998 23.3102C32.0301 23.3102 36.9998 18.3443 36.9998 12.2186C36.9998 6.09284 32.0301 1.12695 25.8998 1.12695C19.7694 1.12695 14.7998 6.09284 14.7998 12.2186C14.7998 18.3443 19.7694 23.3102 25.8998 23.3102Z" stroke="white" stroke-width="2" stroke-miterlimit="10" stroke-linecap="round" stroke-linejoin="round"/>
<path d="M11.0996 46.8926V65.7786" stroke="white" stroke-width="2" stroke-miterlimit="10" stroke-linejoin="bevel"/>
<path d="M58 32.2036C59.1 32.0037 60.2 31.9038 61.4 31.9038H77.4C86.7 31.9038 94.3001 39.4981 94.3001 48.7912V65.8784H73.2" stroke="white" stroke-width="2" stroke-miterlimit="10" stroke-linejoin="bevel"/>
<path d="M69.3998 23.3102C75.5301 23.3102 80.4998 18.3443 80.4998 12.2186C80.4998 6.09284 75.5301 1.12695 69.3998 1.12695C63.2694 1.12695 58.2998 6.09284 58.2998 12.2186C58.2998 18.3443 63.2694 23.3102 69.3998 23.3102Z" stroke="white" stroke-width="2" stroke-miterlimit="10" stroke-linecap="round" stroke-linejoin="round"/>
<path d="M84.2002 46.8926V65.7786" stroke="white" stroke-width="2" stroke-miterlimit="10" stroke-linejoin="bevel"/>
</svg>
