<svg width="85" height="74" viewBox="0 0 85 74" fill="none" xmlns="http://www.w3.org/2000/svg">
<path fill-rule="evenodd" clip-rule="evenodd" d="M13.6271 0.565062L14.5276 0H70.2823L71.182 0.563335L84.1408 27.2614L83.9807 28.3713L43.1444 73.2267L41.665 73.2261L0.891928 28.3707L0.731445 27.2632L13.6271 0.565062ZM15.1551 2L2.82602 27.5251L42.4055 71.0674L82.0459 27.5256L69.6562 2H15.1551Z" fill="white"/>
<path fill-rule="evenodd" clip-rule="evenodd" d="M78.5002 28.698H6.37305V26.698H78.5002V28.698Z" fill="white"/>
<path fill-rule="evenodd" clip-rule="evenodd" d="M40.1364 66.44L27.3672 31.0745L29.2483 30.3953L42.0175 65.7607L40.1364 66.44Z" fill="white"/>
<path fill-rule="evenodd" clip-rule="evenodd" d="M27.0869 24.2854L32.3337 3.91382L34.2705 4.41265L29.0237 24.7842L27.0869 24.2854Z" fill="white"/>
<path fill-rule="evenodd" clip-rule="evenodd" d="M43.2344 65.7607L56.0036 30.3953L57.8847 31.0745L45.1155 66.44L43.2344 65.7607Z" fill="white"/>
<path fill-rule="evenodd" clip-rule="evenodd" d="M56.2924 24.7871L50.9824 4.41547L52.9178 3.91101L58.2278 24.2826L56.2924 24.7871Z" fill="white"/>
</svg>
