<svg width="105" height="95" viewBox="0 0 105 95" fill="none" xmlns="http://www.w3.org/2000/svg">
<g opacity="0.4">
<path d="M2.27112 4.54376C3.52541 4.54376 4.54224 3.52659 4.54224 2.27188C4.54224 1.01717 3.52541 0 2.27112 0C1.01683 0 0 1.01717 0 2.27188C0 3.52659 1.01683 4.54376 2.27112 4.54376Z" fill="white"/>
<path d="M35.5807 4.54376C36.835 4.54376 37.8517 3.52659 37.8517 2.27188C37.8517 1.01717 36.835 0 35.5807 0C34.3264 0 33.3096 1.01717 33.3096 2.27188C33.3096 3.52659 34.3264 4.54376 35.5807 4.54376Z" fill="#FCB35E"/>
<path d="M69.0786 4.54376C70.3328 4.54376 71.3496 3.52659 71.3496 2.27188C71.3496 1.01717 70.3328 0 69.0786 0C67.8243 0 66.8076 1.01717 66.8076 2.27188C66.8076 3.52659 67.8243 4.54376 69.0786 4.54376Z" fill="#FCB35E"/>
<path d="M102.388 4.54376C103.643 4.54376 104.659 3.52659 104.659 2.27188C104.659 1.01717 103.643 0 102.388 0C101.134 0 100.117 1.01717 100.117 2.27188C100.117 3.52659 101.134 4.54376 102.388 4.54376Z" fill="white"/>
<path d="M2.27112 27.0729C3.52541 27.0729 4.54224 26.0557 4.54224 24.801C4.54224 23.5463 3.52541 22.5292 2.27112 22.5292C1.01683 22.5292 0 23.5463 0 24.801C0 26.0557 1.01683 27.0729 2.27112 27.0729Z" fill="#FCB35E"/>
<path d="M35.5807 27.0729C36.835 27.0729 37.8517 26.0557 37.8517 24.801C37.8517 23.5463 36.835 22.5292 35.5807 22.5292C34.3264 22.5292 33.3096 23.5463 33.3096 24.801C33.3096 26.0557 34.3264 27.0729 35.5807 27.0729Z" fill="#FCB35E"/>
<path d="M69.0786 27.0729C70.3328 27.0729 71.3496 26.0557 71.3496 24.801C71.3496 23.5463 70.3328 22.5292 69.0786 22.5292C67.8243 22.5292 66.8076 23.5463 66.8076 24.801C66.8076 26.0557 67.8243 27.0729 69.0786 27.0729Z" fill="#FCB35E"/>
<path d="M102.388 27.0729C103.643 27.0729 104.659 26.0557 104.659 24.801C104.659 23.5463 103.643 22.5292 102.388 22.5292C101.134 22.5292 100.117 23.5463 100.117 24.801C100.117 26.0557 101.134 27.0729 102.388 27.0729Z" fill="#FCB35E"/>
<path d="M2.27112 49.4126C3.52541 49.4126 4.54224 48.3955 4.54224 47.1408C4.54224 45.8861 3.52541 44.8689 2.27112 44.8689C1.01683 44.8689 0 45.8861 0 47.1408C0 48.3955 1.01683 49.4126 2.27112 49.4126Z" fill="#FCB35E"/>
<path d="M35.5807 49.4126C36.835 49.4126 37.8517 48.3955 37.8517 47.1408C37.8517 45.8861 36.835 44.8689 35.5807 44.8689C34.3264 44.8689 33.3096 45.8861 33.3096 47.1408C33.3096 48.3955 34.3264 49.4126 35.5807 49.4126Z" fill="white"/>
<path d="M69.0786 49.4126C70.3328 49.4126 71.3496 48.3955 71.3496 47.1408C71.3496 45.8861 70.3328 44.8689 69.0786 44.8689C67.8243 44.8689 66.8076 45.8861 66.8076 47.1408C66.8076 48.3955 67.8243 49.4126 69.0786 49.4126Z" fill="#FCB35E"/>
<path d="M102.388 49.4126C103.643 49.4126 104.659 48.3955 104.659 47.1408C104.659 45.8861 103.643 44.8689 102.388 44.8689C101.134 44.8689 100.117 45.8861 100.117 47.1408C100.117 48.3955 101.134 49.4126 102.388 49.4126Z" fill="#FCB35E"/>
<path d="M2.27112 71.9418C3.52541 71.9418 4.54224 70.9247 4.54224 69.67C4.54224 68.4152 3.52541 67.3981 2.27112 67.3981C1.01683 67.3981 0 68.4152 0 69.67C0 70.9247 1.01683 71.9418 2.27112 71.9418Z" fill="#FCB35E"/>
<path d="M35.5807 71.9418C36.835 71.9418 37.8517 70.9247 37.8517 69.67C37.8517 68.4152 36.835 67.3981 35.5807 67.3981C34.3264 67.3981 33.3096 68.4152 33.3096 69.67C33.3096 70.9247 34.3264 71.9418 35.5807 71.9418Z" fill="#FCB35E"/>
<path d="M69.0786 71.9418C70.3328 71.9418 71.3496 70.9247 71.3496 69.67C71.3496 68.4152 70.3328 67.3981 69.0786 67.3981C67.8243 67.3981 66.8076 68.4152 66.8076 69.67C66.8076 70.9247 67.8243 71.9418 69.0786 71.9418Z" fill="white"/>
<path d="M102.388 71.9418C103.643 71.9418 104.659 70.9247 104.659 69.67C104.659 68.4152 103.643 67.3981 102.388 67.3981C101.134 67.3981 100.117 68.4152 100.117 69.67C100.117 70.9247 101.134 71.9418 102.388 71.9418Z" fill="#FCB35E"/>
<path d="M2.27112 94.471C3.52541 94.471 4.54224 93.4538 4.54224 92.1991C4.54224 90.9444 3.52541 89.9272 2.27112 89.9272C1.01683 89.9272 0 90.9444 0 92.1991C0 93.4538 1.01683 94.471 2.27112 94.471Z" fill="#FCB35E"/>
<path d="M35.5807 94.471C36.835 94.471 37.8517 93.4538 37.8517 92.1991C37.8517 90.9444 36.835 89.9272 35.5807 89.9272C34.3264 89.9272 33.3096 90.9444 33.3096 92.1991C33.3096 93.4538 34.3264 94.471 35.5807 94.471Z" fill="#FCB35E"/>
<path d="M69.0786 94.471C70.3328 94.471 71.3496 93.4538 71.3496 92.1991C71.3496 90.9444 70.3328 89.9272 69.0786 89.9272C67.8243 89.9272 66.8076 90.9444 66.8076 92.1991C66.8076 93.4538 67.8243 94.471 69.0786 94.471Z" fill="#FCB35E"/>
<path d="M102.388 94.471C103.643 94.471 104.659 93.4538 104.659 92.1991C104.659 90.9444 103.643 89.9272 102.388 89.9272C101.134 89.9272 100.117 90.9444 100.117 92.1991C100.117 93.4538 101.134 94.471 102.388 94.471Z" fill="#FCB35E"/>
</g>
</svg>
