<svg width="241" height="185" viewBox="0 0 241 185" fill="none" xmlns="http://www.w3.org/2000/svg">
<g opacity="0.4">
<path d="M238.728 180.523C237.617 180.523 236.717 181.424 236.717 182.535C236.717 183.646 237.617 184.547 238.728 184.547C239.84 184.547 240.74 183.646 240.74 182.535C240.74 181.424 239.84 180.523 238.728 180.523Z" fill="white"/>
<path d="M209.223 180.523C208.112 180.523 207.211 181.424 207.211 182.535C207.211 183.646 208.112 184.547 209.223 184.547C210.334 184.547 211.234 183.646 211.234 182.535C211.234 181.424 210.334 180.523 209.223 180.523Z" fill="#FCB35E"/>
<path d="M179.55 180.523C178.439 180.523 177.538 181.424 177.538 182.535C177.538 183.646 178.439 184.547 179.55 184.547C180.661 184.547 181.562 183.646 181.562 182.535C181.562 181.424 180.661 180.523 179.55 180.523Z" fill="#FCB35E"/>
<path d="M150.044 180.523C148.933 180.523 148.032 181.424 148.032 182.535C148.032 183.646 148.933 184.547 150.044 184.547C151.155 184.547 152.056 183.646 152.056 182.535C152.056 181.424 151.155 180.523 150.044 180.523Z" fill="white"/>
<path d="M120.37 180.523C119.259 180.523 118.359 181.424 118.359 182.535C118.359 183.646 119.259 184.547 120.37 184.547C121.481 184.547 122.382 183.646 122.382 182.535C122.382 181.424 121.481 180.523 120.37 180.523Z" fill="#FCB35E"/>
<path d="M90.6973 180.523C89.5863 180.523 88.6855 181.424 88.6855 182.535C88.6855 183.646 89.5863 184.547 90.6973 184.547C91.8084 184.547 92.709 183.646 92.709 182.535C92.709 181.424 91.8084 180.523 90.6973 180.523Z" fill="#FCB35E"/>
<path d="M59.1796 182.535C59.1796 181.362 60.0178 180.523 61.1913 180.523C62.3649 180.523 63.2031 181.362 63.2031 182.535C63.2031 183.709 62.3649 184.547 61.1913 184.547C60.0178 184.547 59.1796 183.709 59.1796 182.535Z" fill="#FCB35E"/>
<path d="M31.5175 180.523C30.4065 180.523 29.5059 181.424 29.5059 182.535C29.5059 183.646 30.4065 184.547 31.5175 184.547C32.6286 184.547 33.5293 183.646 33.5293 182.535C33.5293 181.424 32.6286 180.523 31.5175 180.523Z" fill="#FCB35E"/>
<path d="M2.01257 180.523C0.901476 180.523 0.000732626 181.424 0.000732723 182.535C0.00073282 183.646 0.901476 184.547 2.01257 184.547C3.12367 184.547 4.02441 183.646 4.02441 182.535C4.02441 181.424 3.12367 180.523 2.01257 180.523Z" fill="#FCB35E"/>
<path d="M238.728 160.583C237.617 160.583 236.717 161.484 236.717 162.595C236.717 163.706 237.617 164.606 238.728 164.606C239.84 164.606 240.74 163.706 240.74 162.595C240.74 161.484 239.84 160.583 238.728 160.583Z" fill="#FCB35E"/>
<path d="M209.223 160.583C208.112 160.583 207.211 161.484 207.211 162.595C207.211 163.706 208.112 164.606 209.223 164.606C210.334 164.606 211.234 163.706 211.234 162.595C211.234 161.484 210.334 160.583 209.223 160.583Z" fill="#FCB35E"/>
<path d="M179.55 160.583C178.439 160.583 177.538 161.484 177.538 162.595C177.538 163.706 178.439 164.606 179.55 164.606C180.661 164.606 181.562 163.706 181.562 162.595C181.562 161.484 180.661 160.583 179.55 160.583Z" fill="#FCB35E"/>
<path d="M150.044 160.583C148.933 160.583 148.032 161.484 148.032 162.595C148.032 163.706 148.933 164.606 150.044 164.606C151.155 164.606 152.056 163.706 152.056 162.595C152.056 161.484 151.155 160.583 150.044 160.583Z" fill="#FCB35E"/>
<path d="M120.37 160.583C119.259 160.583 118.359 161.484 118.359 162.595C118.359 163.706 119.259 164.606 120.37 164.606C121.481 164.606 122.382 163.706 122.382 162.595C122.382 161.484 121.481 160.583 120.37 160.583Z" fill="#FCB35E"/>
<path d="M90.6973 160.583C89.5863 160.583 88.6855 161.484 88.6855 162.595C88.6855 163.706 89.5863 164.606 90.6973 164.606C91.8084 164.606 92.709 163.706 92.709 162.595C92.709 161.484 91.8084 160.583 90.6973 160.583Z" fill="white"/>
<path d="M59.1796 162.595C59.1796 161.421 60.0178 160.583 61.1913 160.583C62.3649 160.583 63.2031 161.421 63.2031 162.595C63.2031 163.768 62.3649 164.606 61.1913 164.606C60.0178 164.606 59.1796 163.768 59.1796 162.595Z" fill="#FCB35E"/>
<path d="M31.5175 160.583C30.4065 160.583 29.5059 161.484 29.5059 162.595C29.5059 163.706 30.4065 164.606 31.5175 164.606C32.6286 164.606 33.5293 163.706 33.5293 162.595C33.5293 161.484 32.6286 160.583 31.5175 160.583Z" fill="#FCB35E"/>
<path d="M2.01257 160.583C0.901476 160.583 0.000732625 161.484 0.000732723 162.595C0.00073282 163.706 0.901476 164.606 2.01257 164.606C3.12367 164.606 4.02441 163.706 4.02441 162.595C4.02441 161.484 3.12367 160.583 2.01257 160.583Z" fill="white"/>
<path d="M238.728 140.808C237.617 140.808 236.717 141.708 236.717 142.819C236.717 143.93 237.617 144.831 238.728 144.831C239.84 144.831 240.74 143.93 240.74 142.819C240.74 141.708 239.84 140.808 238.728 140.808Z" fill="#FCB35E"/>
<path d="M209.223 140.808C208.112 140.808 207.211 141.708 207.211 142.819C207.211 143.93 208.112 144.831 209.223 144.831C210.334 144.831 211.234 143.93 211.234 142.819C211.234 141.708 210.334 140.808 209.223 140.808Z" fill="white"/>
<path d="M179.55 140.808C178.439 140.808 177.538 141.708 177.538 142.819C177.538 143.93 178.439 144.831 179.55 144.831C180.661 144.831 181.562 143.93 181.562 142.819C181.562 141.708 180.661 140.808 179.55 140.808Z" fill="#FCB35E"/>
<path d="M150.044 140.808C148.933 140.808 148.032 141.708 148.032 142.819C148.032 143.93 148.933 144.831 150.044 144.831C151.155 144.831 152.056 143.93 152.056 142.819C152.056 141.708 151.155 140.808 150.044 140.808Z" fill="#FCB35E"/>
<path d="M120.37 140.808C119.259 140.808 118.359 141.708 118.359 142.819C118.359 143.93 119.259 144.831 120.37 144.831C121.481 144.831 122.382 143.93 122.382 142.819C122.382 141.708 121.481 140.808 120.37 140.808Z" fill="#FCB35E"/>
<path d="M90.6973 140.808C89.5863 140.808 88.6855 141.708 88.6855 142.819C88.6855 143.93 89.5863 144.831 90.6973 144.831C91.8084 144.831 92.709 143.93 92.709 142.819C92.709 141.708 91.8084 140.808 90.6973 140.808Z" fill="#FCB35E"/>
<path d="M59.1796 142.819C59.1796 141.646 60.0178 140.808 61.1913 140.808C62.3649 140.808 63.2031 141.646 63.2031 142.819C63.2031 143.993 62.3649 144.831 61.1913 144.831C60.0178 144.831 59.1796 143.825 59.1796 142.819Z" fill="white"/>
<path d="M31.5175 140.808C30.4065 140.808 29.5059 141.708 29.5059 142.819C29.5059 143.93 30.4065 144.831 31.5175 144.831C32.6286 144.831 33.5293 143.93 33.5293 142.819C33.5293 141.708 32.6286 140.808 31.5175 140.808Z" fill="#FCB35E"/>
<path d="M2.01257 140.808C0.901476 140.808 0.000732625 141.708 0.000732723 142.819C0.00073282 143.93 0.901476 144.831 2.01257 144.831C3.12367 144.831 4.02441 143.93 4.02441 142.819C4.02441 141.708 3.12367 140.808 2.01257 140.808Z" fill="#FCB35E"/>
<path d="M238.728 120.868C237.617 120.868 236.717 121.768 236.717 122.879C236.717 123.989 237.617 124.89 238.728 124.89C239.84 124.89 240.74 123.989 240.74 122.879C240.74 121.768 239.84 120.868 238.728 120.868Z" fill="#FCB35E"/>
<path d="M209.223 120.868C208.112 120.868 207.211 121.768 207.211 122.879C207.211 123.989 208.112 124.89 209.223 124.89C210.334 124.89 211.234 123.989 211.234 122.879C211.234 121.768 210.334 120.868 209.223 120.868Z" fill="#FCB35E"/>
<path d="M179.55 120.868C178.439 120.868 177.538 121.768 177.538 122.879C177.538 123.989 178.439 124.89 179.55 124.89C180.661 124.89 181.562 123.989 181.562 122.879C181.562 121.768 180.661 120.868 179.55 120.868Z" fill="white"/>
<path d="M150.044 120.868C148.933 120.868 148.032 121.768 148.032 122.879C148.032 123.989 148.933 124.89 150.044 124.89C151.155 124.89 152.056 123.989 152.056 122.879C152.056 121.768 151.155 120.868 150.044 120.868Z" fill="#FCB35E"/>
<path d="M120.37 120.868C119.259 120.868 118.359 121.768 118.359 122.879C118.359 123.989 119.259 124.89 120.37 124.89C121.481 124.89 122.382 123.989 122.382 122.879C122.382 121.768 121.481 120.868 120.37 120.868Z" fill="white"/>
<path d="M90.6973 120.868C89.5863 120.868 88.6855 121.768 88.6855 122.879C88.6855 123.989 89.5863 124.89 90.6973 124.89C91.8084 124.89 92.709 123.989 92.709 122.879C92.709 121.768 91.8084 120.868 90.6973 120.868Z" fill="#FCB35E"/>
<path d="M59.1796 122.879C59.1796 121.706 60.0178 120.868 61.1913 120.868C62.3649 120.868 63.2031 121.706 63.2031 122.879C63.2031 124.052 62.3649 124.89 61.1913 124.89C60.0178 124.89 59.1796 124.052 59.1796 122.879Z" fill="#FCB35E"/>
<path d="M31.5175 120.868C30.4065 120.868 29.5059 121.768 29.5059 122.879C29.5059 123.989 30.4065 124.89 31.5175 124.89C32.6286 124.89 33.5293 123.989 33.5293 122.879C33.5293 121.768 32.6286 120.868 31.5175 120.868Z" fill="#FCB35E"/>
<path d="M2.01257 120.868C0.901476 120.868 0.000732625 121.768 0.000732723 122.879C0.00073282 123.989 0.901476 124.89 2.01257 124.89C3.12367 124.89 4.02441 123.989 4.02441 122.879C4.02441 121.768 3.12367 120.868 2.01257 120.868Z" fill="#FCB35E"/>
<path d="M238.728 100.925C237.617 100.925 236.717 101.825 236.717 102.937C236.717 104.048 237.617 104.948 238.728 104.948C239.84 104.948 240.74 104.048 240.74 102.937C240.74 101.825 239.84 100.925 238.728 100.925Z" fill="#FCB35E"/>
<path d="M209.223 100.925C208.112 100.925 207.211 101.825 207.211 102.937C207.211 104.048 208.112 104.948 209.223 104.948C210.334 104.948 211.234 104.048 211.234 102.937C211.234 101.825 210.334 100.925 209.223 100.925Z" fill="#FCB35E"/>
<path d="M179.55 100.925C178.439 100.925 177.538 101.825 177.538 102.937C177.538 104.048 178.439 104.948 179.55 104.948C180.661 104.948 181.562 104.048 181.562 102.937C181.562 101.825 180.661 100.925 179.55 100.925Z" fill="#FCB35E"/>
<path d="M150.044 100.925C148.933 100.925 148.032 101.825 148.032 102.937C148.032 104.048 148.933 104.948 150.044 104.948C151.155 104.948 152.056 104.048 152.056 102.937C152.056 101.825 151.155 100.925 150.044 100.925Z" fill="#FCB35E"/>
<path d="M120.37 100.925C119.259 100.925 118.359 101.825 118.359 102.937C118.359 104.048 119.259 104.948 120.37 104.948C121.481 104.948 122.382 104.048 122.382 102.937C122.382 101.825 121.481 100.925 120.37 100.925Z" fill="#FCB35E"/>
<path d="M90.6973 100.925C89.5863 100.925 88.6855 101.825 88.6855 102.937C88.6855 104.048 89.5863 104.948 90.6973 104.948C91.8084 104.948 92.709 104.048 92.709 102.937C92.709 101.825 91.8084 100.925 90.6973 100.925Z" fill="#FCB35E"/>
<path d="M59.1796 102.937C59.1796 101.763 60.0178 100.925 61.1913 100.925C62.3649 100.925 63.2031 101.763 63.2031 102.937C63.2031 104.11 62.3649 104.948 61.1913 104.948C60.0178 104.948 59.1796 104.11 59.1796 102.937Z" fill="#FCB35E"/>
<path d="M31.5175 100.925C30.4065 100.925 29.5059 101.825 29.5059 102.937C29.5059 104.048 30.4065 104.948 31.5175 104.948C32.6286 104.948 33.5293 104.048 33.5293 102.937C33.5293 101.825 32.6286 100.925 31.5175 100.925Z" fill="white"/>
<path d="M2.01257 100.925C0.901476 100.925 0.000732625 101.825 0.000732723 102.937C0.00073282 104.048 0.901476 104.948 2.01257 104.948C3.12367 104.948 4.02441 104.048 4.02441 102.937C4.02441 101.825 3.12367 100.925 2.01257 100.925Z" fill="white"/>
</g>
<g opacity="0.4">
<path d="M238.728 79.5991C237.617 79.5991 236.717 80.5001 236.717 81.6116C236.717 82.723 237.617 83.624 238.728 83.624C239.84 83.624 240.74 82.723 240.74 81.6116C240.74 80.5001 239.84 79.5991 238.728 79.5991Z" fill="white"/>
<path d="M209.223 79.6006C208.112 79.6006 207.211 80.5013 207.211 81.6123C207.211 82.7233 208.112 83.624 209.223 83.624C210.334 83.624 211.234 82.7233 211.234 81.6123C211.234 80.5013 210.334 79.6006 209.223 79.6006Z" fill="#FCB35E"/>
<path d="M179.55 79.6006C178.439 79.6006 177.538 80.5013 177.538 81.6123C177.538 82.7233 178.439 83.624 179.55 83.624C180.661 83.624 181.562 82.7233 181.562 81.6123C181.562 80.5013 180.661 79.6006 179.55 79.6006Z" fill="#FCB35E"/>
<path d="M150.044 79.6006C148.933 79.6006 148.032 80.5013 148.032 81.6123C148.032 82.7233 148.933 83.624 150.044 83.624C151.155 83.624 152.056 82.7233 152.056 81.6123C152.056 80.5013 151.155 79.6006 150.044 79.6006Z" fill="white"/>
<path d="M120.37 79.6006C119.259 79.6006 118.359 80.5013 118.359 81.6123C118.359 82.7233 119.259 83.624 120.37 83.624C121.481 83.624 122.382 82.7233 122.382 81.6123C122.382 80.5013 121.481 79.6006 120.37 79.6006Z" fill="#FCB35E"/>
<path d="M90.6973 79.6006C89.5863 79.6006 88.6855 80.5013 88.6855 81.6123C88.6855 82.7233 89.5863 83.624 90.6973 83.624C91.8084 83.624 92.709 82.7233 92.709 81.6123C92.709 80.5013 91.8084 79.6006 90.6973 79.6006Z" fill="#FCB35E"/>
<path d="M59.1796 81.6123C59.1796 80.4388 60.0178 79.6006 61.1913 79.6006C62.3649 79.6006 63.2031 80.4388 63.2031 81.6123C63.2031 82.7858 62.3649 83.624 61.1913 83.624C60.0178 83.624 59.1796 82.7858 59.1796 81.6123Z" fill="#FCB35E"/>
<path d="M31.5175 79.6006C30.4065 79.6006 29.5059 80.5013 29.5059 81.6123C29.5059 82.7233 30.4065 83.624 31.5175 83.624C32.6286 83.624 33.5293 82.7233 33.5293 81.6123C33.5293 80.5013 32.6286 79.6006 31.5175 79.6006Z" fill="#FCB35E"/>
<path d="M2.01257 79.6006C0.901476 79.6006 0.000732626 80.5013 0.000732723 81.6123C0.00073282 82.7233 0.901476 83.624 2.01257 83.624C3.12367 83.624 4.02441 82.7233 4.02441 81.6123C4.02441 80.5013 3.12367 79.6006 2.01257 79.6006Z" fill="#FCB35E"/>
<path d="M238.728 59.6582C237.617 59.6582 236.717 60.5589 236.717 61.6699C236.717 62.781 237.617 63.6816 238.728 63.6816C239.84 63.6816 240.74 62.781 240.74 61.6699C240.74 60.5589 239.84 59.6582 238.728 59.6582Z" fill="#FCB35E"/>
<path d="M209.223 59.6582C208.112 59.6582 207.211 60.5589 207.211 61.6699C207.211 62.781 208.112 63.6816 209.223 63.6816C210.334 63.6816 211.234 62.781 211.234 61.6699C211.234 60.5589 210.334 59.6582 209.223 59.6582Z" fill="#FCB35E"/>
<path d="M179.55 59.6582C178.439 59.6582 177.538 60.5589 177.538 61.6699C177.538 62.781 178.439 63.6816 179.55 63.6816C180.661 63.6816 181.562 62.781 181.562 61.6699C181.562 60.5589 180.661 59.6582 179.55 59.6582Z" fill="#FCB35E"/>
<path d="M150.044 59.6582C148.933 59.6582 148.032 60.5589 148.032 61.6699C148.032 62.781 148.933 63.6816 150.044 63.6816C151.155 63.6816 152.056 62.781 152.056 61.6699C152.056 60.5589 151.155 59.6582 150.044 59.6582Z" fill="#FCB35E"/>
<path d="M120.37 59.6582C119.259 59.6582 118.359 60.5589 118.359 61.6699C118.359 62.781 119.259 63.6816 120.37 63.6816C121.481 63.6816 122.382 62.781 122.382 61.6699C122.382 60.5589 121.481 59.6582 120.37 59.6582Z" fill="#FCB35E"/>
<path d="M90.6973 59.6582C89.5863 59.6582 88.6855 60.5589 88.6855 61.6699C88.6855 62.781 89.5863 63.6816 90.6973 63.6816C91.8084 63.6816 92.709 62.781 92.709 61.6699C92.709 60.5589 91.8084 59.6582 90.6973 59.6582Z" fill="white"/>
<path d="M59.1796 61.6699C59.1796 60.4964 60.0178 59.6582 61.1913 59.6582C62.3649 59.6582 63.2031 60.4964 63.2031 61.6699C63.2031 62.8435 62.3649 63.6816 61.1913 63.6816C60.0178 63.6816 59.1796 62.8435 59.1796 61.6699Z" fill="#FCB35E"/>
<path d="M31.5175 59.6582C30.4065 59.6582 29.5059 60.5589 29.5059 61.6699C29.5059 62.781 30.4065 63.6816 31.5175 63.6816C32.6286 63.6816 33.5293 62.781 33.5293 61.6699C33.5293 60.5589 32.6286 59.6582 31.5175 59.6582Z" fill="#FCB35E"/>
<path d="M2.01257 59.6582C0.901476 59.6582 0.000732625 60.5589 0.000732723 61.6699C0.00073282 62.781 0.901476 63.6816 2.01257 63.6816C3.12367 63.6816 4.02441 62.781 4.02441 61.6699C4.02441 60.5589 3.12367 59.6582 2.01257 59.6582Z" fill="white"/>
<path d="M238.728 39.8828C237.617 39.8828 236.717 40.7835 236.717 41.8945C236.717 43.0056 237.617 43.9063 238.728 43.9063C239.84 43.9063 240.74 43.0056 240.74 41.8945C240.74 40.7835 239.84 39.8828 238.728 39.8828Z" fill="#FCB35E"/>
<path d="M209.223 39.8828C208.112 39.8828 207.211 40.7835 207.211 41.8945C207.211 43.0056 208.112 43.9063 209.223 43.9063C210.334 43.9063 211.234 43.0056 211.234 41.8945C211.234 40.7835 210.334 39.8828 209.223 39.8828Z" fill="white"/>
<path d="M179.55 39.8828C178.439 39.8828 177.538 40.7835 177.538 41.8945C177.538 43.0056 178.439 43.9063 179.55 43.9063C180.661 43.9063 181.562 43.0056 181.562 41.8945C181.562 40.7835 180.661 39.8828 179.55 39.8828Z" fill="#FCB35E"/>
<path d="M150.044 39.8828C148.933 39.8828 148.032 40.7835 148.032 41.8945C148.032 43.0056 148.933 43.9063 150.044 43.9063C151.155 43.9063 152.056 43.0056 152.056 41.8945C152.056 40.7835 151.155 39.8828 150.044 39.8828Z" fill="#FCB35E"/>
<path d="M120.37 39.8828C119.259 39.8828 118.359 40.7835 118.359 41.8945C118.359 43.0056 119.259 43.9063 120.37 43.9063C121.481 43.9063 122.382 43.0056 122.382 41.8945C122.382 40.7835 121.481 39.8828 120.37 39.8828Z" fill="#FCB35E"/>
<path d="M90.6973 39.8828C89.5863 39.8828 88.6855 40.7835 88.6855 41.8945C88.6855 43.0056 89.5863 43.9063 90.6973 43.9063C91.8084 43.9063 92.709 43.0056 92.709 41.8945C92.709 40.7835 91.8084 39.8828 90.6973 39.8828Z" fill="#FCB35E"/>
<path d="M59.1796 41.8945C59.1796 40.721 60.0178 39.8828 61.1913 39.8828C62.3649 39.8828 63.2031 40.721 63.2031 41.8945C63.2031 43.068 62.3649 43.9063 61.1913 43.9063C60.0178 43.9063 59.1796 42.9004 59.1796 41.8945Z" fill="white"/>
<path d="M31.5175 39.8828C30.4065 39.8828 29.5059 40.7835 29.5059 41.8945C29.5059 43.0056 30.4065 43.9063 31.5175 43.9063C32.6286 43.9063 33.5293 43.0056 33.5293 41.8945C33.5293 40.7835 32.6286 39.8828 31.5175 39.8828Z" fill="#FCB35E"/>
<path d="M2.01257 39.8828C0.901476 39.8828 0.000732625 40.7835 0.000732723 41.8945C0.00073282 43.0056 0.901476 43.9063 2.01257 43.9063C3.12367 43.9063 4.02441 43.0056 4.02441 41.8945C4.02441 40.7835 3.12367 39.8828 2.01257 39.8828Z" fill="#FCB35E"/>
<path d="M238.728 19.9434C237.617 19.9434 236.717 20.844 236.717 21.9551C236.717 23.0661 237.617 23.9668 238.728 23.9668C239.84 23.9668 240.74 23.0661 240.74 21.9551C240.74 20.844 239.84 19.9434 238.728 19.9434Z" fill="#FCB35E"/>
<path d="M209.223 19.9434C208.112 19.9434 207.211 20.844 207.211 21.9551C207.211 23.0661 208.112 23.9668 209.223 23.9668C210.334 23.9668 211.234 23.0661 211.234 21.9551C211.234 20.844 210.334 19.9434 209.223 19.9434Z" fill="#FCB35E"/>
<path d="M179.55 19.9434C178.439 19.9434 177.538 20.844 177.538 21.9551C177.538 23.0661 178.439 23.9668 179.55 23.9668C180.661 23.9668 181.562 23.0661 181.562 21.9551C181.562 20.844 180.661 19.9434 179.55 19.9434Z" fill="white"/>
<path d="M150.044 19.9434C148.933 19.9434 148.032 20.844 148.032 21.9551C148.032 23.0661 148.933 23.9668 150.044 23.9668C151.155 23.9668 152.056 23.0661 152.056 21.9551C152.056 20.844 151.155 19.9434 150.044 19.9434Z" fill="#FCB35E"/>
<path d="M120.37 19.9434C119.259 19.9434 118.359 20.844 118.359 21.9551C118.359 23.0661 119.259 23.9668 120.37 23.9668C121.481 23.9668 122.382 23.0661 122.382 21.9551C122.382 20.844 121.481 19.9434 120.37 19.9434Z" fill="white"/>
<path d="M90.6973 19.9434C89.5863 19.9434 88.6855 20.844 88.6855 21.9551C88.6855 23.0661 89.5863 23.9668 90.6973 23.9668C91.8084 23.9668 92.709 23.0661 92.709 21.9551C92.709 20.844 91.8084 19.9434 90.6973 19.9434Z" fill="#FCB35E"/>
<path d="M59.1796 21.9551C59.1796 20.7815 60.0178 19.9434 61.1913 19.9434C62.3649 19.9434 63.2031 20.7815 63.2031 21.9551C63.2031 23.1286 62.3649 23.9668 61.1913 23.9668C60.0178 23.9668 59.1796 23.1286 59.1796 21.9551Z" fill="#FCB35E"/>
<path d="M31.5175 19.9434C30.4065 19.9434 29.5059 20.844 29.5059 21.9551C29.5059 23.0661 30.4065 23.9668 31.5175 23.9668C32.6286 23.9668 33.5293 23.0661 33.5293 21.9551C33.5293 20.844 32.6286 19.9434 31.5175 19.9434Z" fill="#FCB35E"/>
<path d="M2.01257 19.9434C0.901476 19.9434 0.000732625 20.844 0.000732723 21.9551C0.00073282 23.0661 0.901476 23.9668 2.01257 23.9668C3.12367 23.9668 4.02441 23.0661 4.02441 21.9551C4.02441 20.844 3.12367 19.9434 2.01257 19.9434Z" fill="#FCB35E"/>
<path d="M238.728 6.52424e-07C237.617 7.49398e-07 236.717 0.900689 236.717 2.01172C236.717 3.12275 237.617 4.02344 238.728 4.02344C239.84 4.02344 240.74 3.12275 240.74 2.01172C240.74 0.900689 239.84 5.55451e-07 238.728 6.52424e-07Z" fill="#FCB35E"/>
<path d="M209.223 6.52424e-07C208.112 7.49396e-07 207.211 0.900689 207.211 2.01172C207.211 3.12275 208.112 4.02344 209.223 4.02344C210.334 4.02344 211.234 3.12275 211.234 2.01172C211.234 0.900689 210.334 5.55451e-07 209.223 6.52424e-07Z" fill="#FCB35E"/>
<path d="M179.55 6.52409e-07C178.439 7.49379e-07 177.538 0.900689 177.538 2.01172C177.538 3.12275 178.439 4.02344 179.55 4.02344C180.661 4.02344 181.562 3.12275 181.562 2.01172C181.562 0.900689 180.661 5.5544e-07 179.55 6.52409e-07Z" fill="#FCB35E"/>
<path d="M150.044 6.52419e-07C148.933 7.49389e-07 148.032 0.900689 148.032 2.01172C148.032 3.12275 148.933 4.02344 150.044 4.02344C151.155 4.02344 152.056 3.12275 152.056 2.01172C152.056 0.900689 151.155 5.55449e-07 150.044 6.52419e-07Z" fill="#FCB35E"/>
<path d="M120.37 6.52418e-07C119.259 7.49388e-07 118.359 0.900689 118.359 2.01172C118.359 3.12275 119.259 4.02344 120.37 4.02344C121.481 4.02344 122.382 3.12275 122.382 2.01172C122.382 0.900689 121.481 5.55448e-07 120.37 6.52418e-07Z" fill="#FCB35E"/>
<path d="M90.6973 6.52415e-07C89.5863 7.49387e-07 88.6855 0.900689 88.6855 2.01172C88.6855 3.12275 89.5863 4.02344 90.6973 4.02344C91.8084 4.02344 92.709 3.12275 92.709 2.01172C92.709 0.900689 91.8084 5.55442e-07 90.6973 6.52415e-07Z" fill="#FCB35E"/>
<path d="M59.1796 2.01172C59.1796 0.838229 60.0178 7.54849e-07 61.1913 6.52424e-07C62.3649 5.5e-07 63.2031 0.838228 63.2031 2.01172C63.2031 3.18521 62.3649 4.02344 61.1913 4.02344C60.0178 4.02344 59.1796 3.18521 59.1796 2.01172Z" fill="#FCB35E"/>
<path d="M31.5175 6.52424e-07C30.4065 7.49396e-07 29.5059 0.900689 29.5059 2.01172C29.5059 3.12275 30.4065 4.02344 31.5175 4.02344C32.6286 4.02344 33.5293 3.12275 33.5293 2.01172C33.5293 0.900689 32.6286 5.55451e-07 31.5175 6.52424e-07Z" fill="white"/>
<path d="M2.01257 6.5243e-07C0.901476 7.49406e-07 0.000732625 0.900689 0.000732723 2.01172C0.00073282 3.12275 0.901476 4.02344 2.01257 4.02344C3.12367 4.02344 4.02441 3.12275 4.02441 2.01172C4.02441 0.900689 3.12367 5.55454e-07 2.01257 6.5243e-07Z" fill="white"/>
</g>
</svg>
