<svg width="280" height="103" viewBox="0 0 280 103" fill="none" xmlns="http://www.w3.org/2000/svg">
<g opacity="0.4" filter="url(#filter0_d_134_1554)">
<path d="M6.27112 5.04175C7.52541 5.04175 8.54224 4.02514 8.54224 2.77112C8.54224 1.5171 7.52541 0.500488 6.27112 0.500488C5.01683 0.500488 4 1.5171 4 2.77112C4 4.02514 5.01683 5.04175 6.27112 5.04175Z" fill="white"/>
<path d="M39.5807 5.04175C40.835 5.04175 41.8517 4.02514 41.8517 2.77112C41.8517 1.5171 40.835 0.500488 39.5807 0.500488C38.3264 0.500488 37.3096 1.5171 37.3096 2.77112C37.3096 4.02514 38.3264 5.04175 39.5807 5.04175Z" fill="#FCB35E"/>
<path d="M73.0786 5.04175C74.3328 5.04175 75.3496 4.02514 75.3496 2.77112C75.3496 1.5171 74.3328 0.500488 73.0786 0.500488C71.8243 0.500488 70.8076 1.5171 70.8076 2.77112C70.8076 4.02514 71.8243 5.04175 73.0786 5.04175Z" fill="#FCB35E"/>
<path d="M106.388 5.04175C107.643 5.04175 108.659 4.02514 108.659 2.77112C108.659 1.5171 107.643 0.500488 106.388 0.500488C105.134 0.500488 104.117 1.5171 104.117 2.77112C104.117 4.02514 105.134 5.04175 106.388 5.04175Z" fill="white"/>
<path d="M139.886 5.04175C141.141 5.04175 142.157 4.02514 142.157 2.77112C142.157 1.5171 141.141 0.500488 139.886 0.500488C138.632 0.500488 137.615 1.5171 137.615 2.77112C137.615 4.02514 138.632 5.04175 139.886 5.04175Z" fill="#FCB35E"/>
<path d="M173.384 5.04175C174.639 5.04175 175.655 4.02514 175.655 2.77112C175.655 1.5171 174.639 0.500488 173.384 0.500488C172.13 0.500488 171.113 1.5171 171.113 2.77112C171.113 4.02514 172.13 5.04175 173.384 5.04175Z" fill="#FCB35E"/>
<path d="M208.965 2.77112C208.965 4.09564 208.019 5.04175 206.694 5.04175C205.369 5.04175 204.423 4.09564 204.423 2.77112C204.423 1.4466 205.369 0.500488 206.694 0.500488C208.019 0.500488 208.965 1.4466 208.965 2.77112Z" fill="#FCB35E"/>
<path d="M240.192 5.04175C241.446 5.04175 242.463 4.02514 242.463 2.77112C242.463 1.5171 241.446 0.500488 240.192 0.500488C238.938 0.500488 237.921 1.5171 237.921 2.77112C237.921 4.02514 238.938 5.04175 240.192 5.04175Z" fill="#FCB35E"/>
<path d="M273.502 5.04175C274.756 5.04175 275.773 4.02514 275.773 2.77112C275.773 1.5171 274.756 0.500488 273.502 0.500488C272.247 0.500488 271.23 1.5171 271.23 2.77112C271.23 4.02514 272.247 5.04175 273.502 5.04175Z" fill="#FCB35E"/>
<path d="M6.27112 27.554C7.52541 27.554 8.54224 26.5373 8.54224 25.2833C8.54224 24.0293 7.52541 23.0127 6.27112 23.0127C5.01683 23.0127 4 24.0293 4 25.2833C4 26.5373 5.01683 27.554 6.27112 27.554Z" fill="#FCB35E"/>
<path d="M39.5807 27.554C40.835 27.554 41.8517 26.5373 41.8517 25.2833C41.8517 24.0293 40.835 23.0127 39.5807 23.0127C38.3264 23.0127 37.3096 24.0293 37.3096 25.2833C37.3096 26.5373 38.3264 27.554 39.5807 27.554Z" fill="#FCB35E"/>
<path d="M73.0786 27.554C74.3328 27.554 75.3496 26.5373 75.3496 25.2833C75.3496 24.0293 74.3328 23.0127 73.0786 23.0127C71.8243 23.0127 70.8076 24.0293 70.8076 25.2833C70.8076 26.5373 71.8243 27.554 73.0786 27.554Z" fill="#FCB35E"/>
<path d="M106.388 27.554C107.643 27.554 108.659 26.5373 108.659 25.2833C108.659 24.0293 107.643 23.0127 106.388 23.0127C105.134 23.0127 104.117 24.0293 104.117 25.2833C104.117 26.5373 105.134 27.554 106.388 27.554Z" fill="#FCB35E"/>
<path d="M139.886 27.554C141.141 27.554 142.157 26.5373 142.157 25.2833C142.157 24.0293 141.141 23.0127 139.886 23.0127C138.632 23.0127 137.615 24.0293 137.615 25.2833C137.615 26.5373 138.632 27.554 139.886 27.554Z" fill="#FCB35E"/>
<path d="M173.384 27.554C174.639 27.554 175.655 26.5373 175.655 25.2833C175.655 24.0293 174.639 23.0127 173.384 23.0127C172.13 23.0127 171.113 24.0293 171.113 25.2833C171.113 26.5373 172.13 27.554 173.384 27.554Z" fill="white"/>
<path d="M208.965 25.2833C208.965 26.6078 208.019 27.554 206.694 27.554C205.369 27.554 204.423 26.6078 204.423 25.2833C204.423 23.9588 205.369 23.0127 206.694 23.0127C208.019 23.0127 208.965 23.9588 208.965 25.2833Z" fill="#FCB35E"/>
<path d="M240.192 27.554C241.446 27.554 242.463 26.5373 242.463 25.2833C242.463 24.0293 241.446 23.0127 240.192 23.0127C238.938 23.0127 237.921 24.0293 237.921 25.2833C237.921 26.5373 238.938 27.554 240.192 27.554Z" fill="#FCB35E"/>
<path d="M273.502 27.554C274.756 27.554 275.773 26.5373 275.773 25.2833C275.773 24.0293 274.756 23.0127 273.502 23.0127C272.247 23.0127 271.23 24.0293 271.23 25.2833C271.23 26.5373 272.247 27.554 273.502 27.554Z" fill="white"/>
<path d="M6.27112 49.877C7.52541 49.877 8.54224 48.8604 8.54224 47.6065C8.54224 46.3525 7.52541 45.3359 6.27112 45.3359C5.01683 45.3359 4 46.3525 4 47.6065C4 48.8604 5.01683 49.877 6.27112 49.877Z" fill="#FCB35E"/>
<path d="M39.5807 49.877C40.835 49.877 41.8517 48.8604 41.8517 47.6065C41.8517 46.3525 40.835 45.3359 39.5807 45.3359C38.3264 45.3359 37.3096 46.3525 37.3096 47.6065C37.3096 48.8604 38.3264 49.877 39.5807 49.877Z" fill="white"/>
<path d="M73.0786 49.877C74.3328 49.877 75.3496 48.8604 75.3496 47.6065C75.3496 46.3525 74.3328 45.3359 73.0786 45.3359C71.8243 45.3359 70.8076 46.3525 70.8076 47.6065C70.8076 48.8604 71.8243 49.877 73.0786 49.877Z" fill="#FCB35E"/>
<path d="M106.388 49.877C107.643 49.877 108.659 48.8604 108.659 47.6065C108.659 46.3525 107.643 45.3359 106.388 45.3359C105.134 45.3359 104.117 46.3525 104.117 47.6065C104.117 48.8604 105.134 49.877 106.388 49.877Z" fill="#FCB35E"/>
<path d="M139.886 49.877C141.141 49.877 142.157 48.8604 142.157 47.6065C142.157 46.3525 141.141 45.3359 139.886 45.3359C138.632 45.3359 137.615 46.3525 137.615 47.6065C137.615 48.8604 138.632 49.877 139.886 49.877Z" fill="#FCB35E"/>
<path d="M173.384 49.877C174.639 49.877 175.655 48.8604 175.655 47.6065C175.655 46.3525 174.639 45.3359 173.384 45.3359C172.13 45.3359 171.113 46.3525 171.113 47.6065C171.113 48.8604 172.13 49.877 173.384 49.877Z" fill="#FCB35E"/>
<path d="M208.965 47.6065C208.965 48.9309 208.019 49.877 206.694 49.877C205.369 49.877 204.423 48.9309 204.423 47.6065C204.423 46.282 205.369 45.3359 206.694 45.3359C208.019 45.3359 208.965 46.4712 208.965 47.6065Z" fill="white"/>
<path d="M240.192 49.877C241.446 49.877 242.463 48.8604 242.463 47.6065C242.463 46.3525 241.446 45.3359 240.192 45.3359C238.938 45.3359 237.921 46.3525 237.921 47.6065C237.921 48.8604 238.938 49.877 240.192 49.877Z" fill="#FCB35E"/>
<path d="M273.502 49.877C274.756 49.877 275.773 48.8604 275.773 47.6065C275.773 46.3525 274.756 45.3359 273.502 45.3359C272.247 45.3359 271.23 46.3525 271.23 47.6065C271.23 48.8604 272.247 49.877 273.502 49.877Z" fill="#FCB35E"/>
<path d="M6.27112 72.3901C7.52541 72.3901 8.54224 71.3734 8.54224 70.1192C8.54224 68.8649 7.52541 67.8481 6.27112 67.8481C5.01683 67.8481 4 68.8649 4 70.1192C4 71.3734 5.01683 72.3901 6.27112 72.3901Z" fill="#FCB35E"/>
<path d="M39.5807 72.3901C40.835 72.3901 41.8517 71.3734 41.8517 70.1192C41.8517 68.8649 40.835 67.8481 39.5807 67.8481C38.3264 67.8481 37.3096 68.8649 37.3096 70.1192C37.3096 71.3734 38.3264 72.3901 39.5807 72.3901Z" fill="#FCB35E"/>
<path d="M73.0786 72.3901C74.3328 72.3901 75.3496 71.3734 75.3496 70.1192C75.3496 68.8649 74.3328 67.8481 73.0786 67.8481C71.8243 67.8481 70.8076 68.8649 70.8076 70.1192C70.8076 71.3734 71.8243 72.3901 73.0786 72.3901Z" fill="white"/>
<path d="M106.388 72.3901C107.643 72.3901 108.659 71.3734 108.659 70.1192C108.659 68.8649 107.643 67.8481 106.388 67.8481C105.134 67.8481 104.117 68.8649 104.117 70.1192C104.117 71.3734 105.134 72.3901 106.388 72.3901Z" fill="#FCB35E"/>
<path d="M139.886 72.3901C141.141 72.3901 142.157 71.3734 142.157 70.1192C142.157 68.8649 141.141 67.8481 139.886 67.8481C138.632 67.8481 137.615 68.8649 137.615 70.1192C137.615 71.3734 138.632 72.3901 139.886 72.3901Z" fill="white"/>
<path d="M173.384 72.3901C174.639 72.3901 175.655 71.3734 175.655 70.1192C175.655 68.8649 174.639 67.8481 173.384 67.8481C172.13 67.8481 171.113 68.8649 171.113 70.1192C171.113 71.3734 172.13 72.3901 173.384 72.3901Z" fill="#FCB35E"/>
<path d="M208.965 70.1192C208.965 71.4439 208.019 72.3901 206.694 72.3901C205.369 72.3901 204.423 71.4439 204.423 70.1192C204.423 68.7944 205.369 67.8481 206.694 67.8481C208.019 67.8481 208.965 68.7944 208.965 70.1192Z" fill="#FCB35E"/>
<path d="M240.192 72.3901C241.446 72.3901 242.463 71.3734 242.463 70.1192C242.463 68.8649 241.446 67.8481 240.192 67.8481C238.938 67.8481 237.921 68.8649 237.921 70.1192C237.921 71.3734 238.938 72.3901 240.192 72.3901Z" fill="#FCB35E"/>
<path d="M273.502 72.3901C274.756 72.3901 275.773 71.3734 275.773 70.1192C275.773 68.8649 274.756 67.8481 273.502 67.8481C272.247 67.8481 271.23 68.8649 271.23 70.1192C271.23 71.3734 272.247 72.3901 273.502 72.3901Z" fill="#FCB35E"/>
<path d="M6.27112 94.9026C7.52541 94.9026 8.54224 93.8858 8.54224 92.6315C8.54224 91.3772 7.52541 90.3604 6.27112 90.3604C5.01683 90.3604 4 91.3772 4 92.6315C4 93.8858 5.01683 94.9026 6.27112 94.9026Z" fill="#FCB35E"/>
<path d="M39.5807 94.9026C40.835 94.9026 41.8517 93.8858 41.8517 92.6315C41.8517 91.3772 40.835 90.3604 39.5807 90.3604C38.3264 90.3604 37.3096 91.3772 37.3096 92.6315C37.3096 93.8858 38.3264 94.9026 39.5807 94.9026Z" fill="#FCB35E"/>
<path d="M73.0786 94.9026C74.3328 94.9026 75.3496 93.8858 75.3496 92.6315C75.3496 91.3772 74.3328 90.3604 73.0786 90.3604C71.8243 90.3604 70.8076 91.3772 70.8076 92.6315C70.8076 93.8858 71.8243 94.9026 73.0786 94.9026Z" fill="#FCB35E"/>
<path d="M106.388 94.9026C107.643 94.9026 108.659 93.8858 108.659 92.6315C108.659 91.3772 107.643 90.3604 106.388 90.3604C105.134 90.3604 104.117 91.3772 104.117 92.6315C104.117 93.8858 105.134 94.9026 106.388 94.9026Z" fill="#FCB35E"/>
<path d="M139.886 94.9026C141.141 94.9026 142.157 93.8858 142.157 92.6315C142.157 91.3772 141.141 90.3604 139.886 90.3604C138.632 90.3604 137.615 91.3772 137.615 92.6315C137.615 93.8858 138.632 94.9026 139.886 94.9026Z" fill="#FCB35E"/>
<path d="M173.384 94.9026C174.639 94.9026 175.655 93.8858 175.655 92.6315C175.655 91.3772 174.639 90.3604 173.384 90.3604C172.13 90.3604 171.113 91.3772 171.113 92.6315C171.113 93.8858 172.13 94.9026 173.384 94.9026Z" fill="#FCB35E"/>
<path d="M208.965 92.6315C208.965 93.9563 208.019 94.9026 206.694 94.9026C205.369 94.9026 204.423 93.9563 204.423 92.6315C204.423 91.3067 205.369 90.3604 206.694 90.3604C208.019 90.3604 208.965 91.3067 208.965 92.6315Z" fill="#FCB35E"/>
<path d="M240.192 94.9026C241.446 94.9026 242.463 93.8858 242.463 92.6315C242.463 91.3772 241.446 90.3604 240.192 90.3604C238.938 90.3604 237.921 91.3772 237.921 92.6315C237.921 93.8858 238.938 94.9026 240.192 94.9026Z" fill="white"/>
<path d="M273.502 94.9026C274.756 94.9026 275.773 93.8858 275.773 92.6315C275.773 91.3772 274.756 90.3604 273.502 90.3604C272.247 90.3604 271.23 91.3772 271.23 92.6315C271.23 93.8858 272.247 94.9026 273.502 94.9026Z" fill="white"/>
</g>
<defs>
<filter id="filter0_d_134_1554" x="0" y="0.500488" width="279.772" height="102.402" filterUnits="userSpaceOnUse" color-interpolation-filters="sRGB">
<feFlood flood-opacity="0" result="BackgroundImageFix"/>
<feColorMatrix in="SourceAlpha" type="matrix" values="0 0 0 0 0 0 0 0 0 0 0 0 0 0 0 0 0 0 127 0" result="hardAlpha"/>
<feOffset dy="4"/>
<feGaussianBlur stdDeviation="2"/>
<feComposite in2="hardAlpha" operator="out"/>
<feColorMatrix type="matrix" values="0 0 0 0 0 0 0 0 0 0 0 0 0 0 0 0 0 0 0.25 0"/>
<feBlend mode="normal" in2="BackgroundImageFix" result="effect1_dropShadow_134_1554"/>
<feBlend mode="normal" in="SourceGraphic" in2="effect1_dropShadow_134_1554" result="shape"/>
</filter>
</defs>
</svg>
