<svg width="260" height="96" viewBox="0 0 260 96" fill="none" xmlns="http://www.w3.org/2000/svg">
<g opacity="0.4">
<path d="M23.5807 5.35718C24.835 5.35718 25.8517 4.34054 25.8517 3.08649C25.8517 1.83243 24.835 0.815796 23.5807 0.815796C22.3264 0.815796 21.3096 1.83243 21.3096 3.08649C21.3096 4.34054 22.3264 5.35718 23.5807 5.35718Z" fill="#FCB35E"/>
<path d="M57.0786 5.35718C58.3328 5.35718 59.3496 4.34054 59.3496 3.08649C59.3496 1.83243 58.3328 0.815796 57.0786 0.815796C55.8243 0.815796 54.8076 1.83243 54.8076 3.08649C54.8076 4.34054 55.8243 5.35718 57.0786 5.35718Z" fill="#FCB35E"/>
<path d="M90.3882 5.35718C91.6425 5.35718 92.6593 4.34054 92.6593 3.08649C92.6593 1.83243 91.6425 0.815796 90.3882 0.815796C89.134 0.815796 88.1172 1.83243 88.1172 3.08649C88.1172 4.34054 89.134 5.35718 90.3882 5.35718Z" fill="white"/>
<path d="M123.886 5.35718C125.141 5.35718 126.157 4.34054 126.157 3.08649C126.157 1.83243 125.141 0.815796 123.886 0.815796C122.632 0.815796 121.615 1.83243 121.615 3.08649C121.615 4.34054 122.632 5.35718 123.886 5.35718Z" fill="#FCB35E"/>
<path d="M157.384 5.35718C158.639 5.35718 159.655 4.34054 159.655 3.08649C159.655 1.83243 158.639 0.815796 157.384 0.815796C156.13 0.815796 155.113 1.83243 155.113 3.08649C155.113 4.34054 156.13 5.35718 157.384 5.35718Z" fill="#FCB35E"/>
<path d="M192.965 3.08649C192.965 4.41104 192.019 5.35718 190.694 5.35718C189.369 5.35718 188.423 4.41104 188.423 3.08649C188.423 1.76193 189.369 0.815796 190.694 0.815796C192.019 0.815796 192.965 1.76193 192.965 3.08649Z" fill="#FCB35E"/>
<path d="M224.192 5.35718C225.446 5.35718 226.463 4.34054 226.463 3.08649C226.463 1.83243 225.446 0.815796 224.192 0.815796C222.938 0.815796 221.921 1.83243 221.921 3.08649C221.921 4.34054 222.938 5.35718 224.192 5.35718Z" fill="#FCB35E"/>
<path d="M257.502 5.35718C258.756 5.35718 259.773 4.34054 259.773 3.08649C259.773 1.83243 258.756 0.815796 257.502 0.815796C256.247 0.815796 255.23 1.83243 255.23 3.08649C255.23 4.34054 256.247 5.35718 257.502 5.35718Z" fill="#FCB35E"/>
<path d="M23.5807 27.8704C24.835 27.8704 25.8517 26.8535 25.8517 25.5993C25.8517 24.345 24.835 23.3282 23.5807 23.3282C22.3264 23.3282 21.3096 24.345 21.3096 25.5993C21.3096 26.8535 22.3264 27.8704 23.5807 27.8704Z" fill="#FCB35E"/>
<path d="M57.0786 27.8704C58.3328 27.8704 59.3496 26.8535 59.3496 25.5993C59.3496 24.345 58.3328 23.3282 57.0786 23.3282C55.8243 23.3282 54.8076 24.345 54.8076 25.5993C54.8076 26.8535 55.8243 27.8704 57.0786 27.8704Z" fill="#FCB35E"/>
<path d="M90.3882 27.8704C91.6425 27.8704 92.6593 26.8535 92.6593 25.5993C92.6593 24.345 91.6425 23.3282 90.3882 23.3282C89.134 23.3282 88.1172 24.345 88.1172 25.5993C88.1172 26.8535 89.134 27.8704 90.3882 27.8704Z" fill="#FCB35E"/>
<path d="M123.886 27.8704C125.141 27.8704 126.157 26.8535 126.157 25.5993C126.157 24.345 125.141 23.3282 123.886 23.3282C122.632 23.3282 121.615 24.345 121.615 25.5993C121.615 26.8535 122.632 27.8704 123.886 27.8704Z" fill="#FCB35E"/>
<path d="M157.384 27.8704C158.639 27.8704 159.655 26.8535 159.655 25.5993C159.655 24.345 158.639 23.3282 157.384 23.3282C156.13 23.3282 155.113 24.345 155.113 25.5993C155.113 26.8535 156.13 27.8704 157.384 27.8704Z" fill="white"/>
<path d="M192.965 25.5993C192.965 26.9241 192.019 27.8704 190.694 27.8704C189.369 27.8704 188.423 26.9241 188.423 25.5993C188.423 24.2745 189.369 23.3282 190.694 23.3282C192.019 23.3282 192.965 24.2745 192.965 25.5993Z" fill="#FCB35E"/>
<path d="M224.192 27.8704C225.446 27.8704 226.463 26.8535 226.463 25.5993C226.463 24.345 225.446 23.3282 224.192 23.3282C222.938 23.3282 221.921 24.345 221.921 25.5993C221.921 26.8535 222.938 27.8704 224.192 27.8704Z" fill="#FCB35E"/>
<path d="M257.502 27.8704C258.756 27.8704 259.773 26.8535 259.773 25.5993C259.773 24.345 258.756 23.3282 257.502 23.3282C256.247 23.3282 255.23 24.345 255.23 25.5993C255.23 26.8535 256.247 27.8704 257.502 27.8704Z" fill="white"/>
<path d="M23.5807 50.1936C24.835 50.1936 25.8517 49.1768 25.8517 47.9225C25.8517 46.6682 24.835 45.6514 23.5807 45.6514C22.3264 45.6514 21.3096 46.6682 21.3096 47.9225C21.3096 49.1768 22.3264 50.1936 23.5807 50.1936Z" fill="white"/>
<path d="M57.0786 50.1936C58.3328 50.1936 59.3496 49.1768 59.3496 47.9225C59.3496 46.6682 58.3328 45.6514 57.0786 45.6514C55.8243 45.6514 54.8076 46.6682 54.8076 47.9225C54.8076 49.1768 55.8243 50.1936 57.0786 50.1936Z" fill="#FCB35E"/>
<path d="M90.3882 50.1936C91.6425 50.1936 92.6593 49.1768 92.6593 47.9225C92.6593 46.6682 91.6425 45.6514 90.3882 45.6514C89.134 45.6514 88.1172 46.6682 88.1172 47.9225C88.1172 49.1768 89.134 50.1936 90.3882 50.1936Z" fill="#FCB35E"/>
<path d="M123.886 50.1936C125.141 50.1936 126.157 49.1768 126.157 47.9225C126.157 46.6682 125.141 45.6514 123.886 45.6514C122.632 45.6514 121.615 46.6682 121.615 47.9225C121.615 49.1768 122.632 50.1936 123.886 50.1936Z" fill="#FCB35E"/>
<path d="M157.384 50.1936C158.639 50.1936 159.655 49.1768 159.655 47.9225C159.655 46.6682 158.639 45.6514 157.384 45.6514C156.13 45.6514 155.113 46.6682 155.113 47.9225C155.113 49.1768 156.13 50.1936 157.384 50.1936Z" fill="#FCB35E"/>
<path d="M192.965 47.9225C192.965 49.2473 192.019 50.1936 190.694 50.1936C189.369 50.1936 188.423 49.2473 188.423 47.9225C188.423 46.5977 189.369 45.6514 190.694 45.6514C192.019 45.6514 192.965 46.787 192.965 47.9225Z" fill="white"/>
<path d="M224.192 50.1936C225.446 50.1936 226.463 49.1768 226.463 47.9225C226.463 46.6682 225.446 45.6514 224.192 45.6514C222.938 45.6514 221.921 46.6682 221.921 47.9225C221.921 49.1768 222.938 50.1936 224.192 50.1936Z" fill="#FCB35E"/>
<path d="M257.502 50.1936C258.756 50.1936 259.773 49.1768 259.773 47.9225C259.773 46.6682 258.756 45.6514 257.502 45.6514C256.247 45.6514 255.23 46.6682 255.23 47.9225C255.23 49.1768 256.247 50.1936 257.502 50.1936Z" fill="#FCB35E"/>
<path d="M23.5807 72.7058C24.835 72.7058 25.8517 71.689 25.8517 70.4347C25.8517 69.1804 24.835 68.1636 23.5807 68.1636C22.3264 68.1636 21.3096 69.1804 21.3096 70.4347C21.3096 71.689 22.3264 72.7058 23.5807 72.7058Z" fill="#FCB35E"/>
<path d="M57.0786 72.7058C58.3328 72.7058 59.3496 71.689 59.3496 70.4347C59.3496 69.1804 58.3328 68.1636 57.0786 68.1636C55.8243 68.1636 54.8076 69.1804 54.8076 70.4347C54.8076 71.689 55.8243 72.7058 57.0786 72.7058Z" fill="white"/>
<path d="M90.3882 72.7058C91.6425 72.7058 92.6593 71.689 92.6593 70.4347C92.6593 69.1804 91.6425 68.1636 90.3882 68.1636C89.134 68.1636 88.1172 69.1804 88.1172 70.4347C88.1172 71.689 89.134 72.7058 90.3882 72.7058Z" fill="#FCB35E"/>
<path d="M123.886 72.7058C125.141 72.7058 126.157 71.689 126.157 70.4347C126.157 69.1804 125.141 68.1636 123.886 68.1636C122.632 68.1636 121.615 69.1804 121.615 70.4347C121.615 71.689 122.632 72.7058 123.886 72.7058Z" fill="white"/>
<path d="M157.384 72.7058C158.639 72.7058 159.655 71.689 159.655 70.4347C159.655 69.1804 158.639 68.1636 157.384 68.1636C156.13 68.1636 155.113 69.1804 155.113 70.4347C155.113 71.689 156.13 72.7058 157.384 72.7058Z" fill="#FCB35E"/>
<path d="M192.965 70.4347C192.965 71.7595 192.019 72.7058 190.694 72.7058C189.369 72.7058 188.423 71.7595 188.423 70.4347C188.423 69.1099 189.369 68.1636 190.694 68.1636C192.019 68.1636 192.965 69.1099 192.965 70.4347Z" fill="#FCB35E"/>
<path d="M224.192 72.7058C225.446 72.7058 226.463 71.689 226.463 70.4347C226.463 69.1804 225.446 68.1636 224.192 68.1636C222.938 68.1636 221.921 69.1804 221.921 70.4347C221.921 71.689 222.938 72.7058 224.192 72.7058Z" fill="#FCB35E"/>
<path d="M257.502 72.7058C258.756 72.7058 259.773 71.689 259.773 70.4347C259.773 69.1804 258.756 68.1636 257.502 68.1636C256.247 68.1636 255.23 69.1804 255.23 70.4347C255.23 71.689 256.247 72.7058 257.502 72.7058Z" fill="#FCB35E"/>
<path d="M23.5807 95.2172C24.835 95.2172 25.8517 94.2006 25.8517 92.9465C25.8517 91.6925 24.835 90.6759 23.5807 90.6759C22.3264 90.6759 21.3096 91.6925 21.3096 92.9465C21.3096 94.2006 22.3264 95.2172 23.5807 95.2172Z" fill="#FCB35E"/>
<path d="M57.0786 95.2172C58.3328 95.2172 59.3496 94.2006 59.3496 92.9465C59.3496 91.6925 58.3328 90.6759 57.0786 90.6759C55.8243 90.6759 54.8076 91.6925 54.8076 92.9465C54.8076 94.2006 55.8243 95.2172 57.0786 95.2172Z" fill="#FCB35E"/>
<path d="M90.3882 95.2172C91.6425 95.2172 92.6593 94.2006 92.6593 92.9465C92.6593 91.6925 91.6425 90.6759 90.3882 90.6759C89.134 90.6759 88.1172 91.6925 88.1172 92.9465C88.1172 94.2006 89.134 95.2172 90.3882 95.2172Z" fill="#FCB35E"/>
<path d="M123.886 95.2172C125.141 95.2172 126.157 94.2006 126.157 92.9465C126.157 91.6925 125.141 90.6759 123.886 90.6759C122.632 90.6759 121.615 91.6925 121.615 92.9465C121.615 94.2006 122.632 95.2172 123.886 95.2172Z" fill="#FCB35E"/>
<path d="M157.384 95.2172C158.639 95.2172 159.655 94.2006 159.655 92.9465C159.655 91.6925 158.639 90.6759 157.384 90.6759C156.13 90.6759 155.113 91.6925 155.113 92.9465C155.113 94.2006 156.13 95.2172 157.384 95.2172Z" fill="#FCB35E"/>
<path d="M192.965 92.9465C192.965 94.2711 192.019 95.2172 190.694 95.2172C189.369 95.2172 188.423 94.2711 188.423 92.9465C188.423 91.622 189.369 90.6759 190.694 90.6759C192.019 90.6759 192.965 91.622 192.965 92.9465Z" fill="#FCB35E"/>
<path d="M224.192 95.2172C225.446 95.2172 226.463 94.2006 226.463 92.9465C226.463 91.6925 225.446 90.6759 224.192 90.6759C222.938 90.6759 221.921 91.6925 221.921 92.9465C221.921 94.2006 222.938 95.2172 224.192 95.2172Z" fill="white"/>
<path d="M257.502 95.2172C258.756 95.2172 259.773 94.2006 259.773 92.9465C259.773 91.6925 258.756 90.6759 257.502 90.6759C256.247 90.6759 255.23 91.6925 255.23 92.9465C255.23 94.2006 256.247 95.2172 257.502 95.2172Z" fill="white"/>
</g>
</svg>
