<svg width="241" height="84" viewBox="0 0 241 84" fill="none" xmlns="http://www.w3.org/2000/svg">
<g opacity="0.4">
<path d="M238.728 79.8369C237.617 79.8369 236.717 80.7375 236.717 81.8484C236.717 82.9593 237.617 83.8599 238.728 83.8599C239.84 83.8599 240.74 82.9593 240.74 81.8484C240.74 80.7375 239.84 79.8369 238.728 79.8369Z" fill="white"/>
<path d="M209.223 79.8369C208.112 79.8369 207.211 80.7376 207.211 81.8486C207.211 82.9597 208.112 83.8604 209.223 83.8604C210.334 83.8604 211.234 82.9597 211.234 81.8486C211.234 80.7376 210.334 79.8369 209.223 79.8369Z" fill="#FCB35E"/>
<path d="M179.55 79.8369C178.439 79.8369 177.538 80.7376 177.538 81.8486C177.538 82.9597 178.439 83.8604 179.55 83.8604C180.661 83.8604 181.562 82.9597 181.562 81.8486C181.562 80.7376 180.661 79.8369 179.55 79.8369Z" fill="#FCB35E"/>
<path d="M150.044 79.8369C148.933 79.8369 148.032 80.7376 148.032 81.8486C148.032 82.9597 148.933 83.8604 150.044 83.8604C151.155 83.8604 152.056 82.9597 152.056 81.8486C152.056 80.7376 151.155 79.8369 150.044 79.8369Z" fill="white"/>
<path d="M120.37 79.8369C119.259 79.8369 118.359 80.7376 118.359 81.8486C118.359 82.9597 119.259 83.8604 120.37 83.8604C121.481 83.8604 122.382 82.9597 122.382 81.8486C122.382 80.7376 121.481 79.8369 120.37 79.8369Z" fill="#FCB35E"/>
<path d="M90.6973 79.8369C89.5863 79.8369 88.6855 80.7376 88.6855 81.8486C88.6855 82.9597 89.5863 83.8604 90.6973 83.8604C91.8084 83.8604 92.709 82.9597 92.709 81.8486C92.709 80.7376 91.8084 79.8369 90.6973 79.8369Z" fill="#FCB35E"/>
<path d="M59.1796 81.8486C59.1796 80.6751 60.0178 79.8369 61.1913 79.8369C62.3649 79.8369 63.2031 80.6751 63.2031 81.8486C63.2031 83.0221 62.3649 83.8604 61.1913 83.8604C60.0178 83.8604 59.1796 83.0221 59.1796 81.8486Z" fill="#FCB35E"/>
<path d="M31.5175 79.8369C30.4065 79.8369 29.5059 80.7376 29.5059 81.8486C29.5059 82.9597 30.4065 83.8604 31.5175 83.8604C32.6286 83.8604 33.5293 82.9597 33.5293 81.8486C33.5293 80.7376 32.6286 79.8369 31.5175 79.8369Z" fill="#FCB35E"/>
<path d="M2.01257 79.8369C0.901476 79.8369 0.000732626 80.7376 0.000732723 81.8486C0.00073282 82.9597 0.901476 83.8604 2.01257 83.8604C3.12367 83.8604 4.02441 82.9597 4.02441 81.8486C4.02441 80.7376 3.12367 79.8369 2.01257 79.8369Z" fill="#FCB35E"/>
<path d="M238.728 59.895C237.617 59.895 236.717 60.7957 236.717 61.9068C236.717 63.0178 237.617 63.9185 238.728 63.9185C239.84 63.9185 240.74 63.0178 240.74 61.9068C240.74 60.7957 239.84 59.895 238.728 59.895Z" fill="#FCB35E"/>
<path d="M209.223 59.8955C208.112 59.8955 207.211 60.7962 207.211 61.9073C207.211 63.0183 208.112 63.9189 209.223 63.9189C210.334 63.9189 211.234 63.0183 211.234 61.9073C211.234 60.7962 210.334 59.8955 209.223 59.8955Z" fill="#FCB35E"/>
<path d="M179.55 59.8955C178.439 59.8955 177.538 60.7962 177.538 61.9073C177.538 63.0183 178.439 63.9189 179.55 63.9189C180.661 63.9189 181.562 63.0183 181.562 61.9073C181.562 60.7962 180.661 59.8955 179.55 59.8955Z" fill="#FCB35E"/>
<path d="M150.044 59.8955C148.933 59.8955 148.032 60.7962 148.032 61.9073C148.032 63.0183 148.933 63.9189 150.044 63.9189C151.155 63.9189 152.056 63.0183 152.056 61.9073C152.056 60.7962 151.155 59.8955 150.044 59.8955Z" fill="#FCB35E"/>
<path d="M120.37 59.8955C119.259 59.8955 118.359 60.7962 118.359 61.9073C118.359 63.0183 119.259 63.9189 120.37 63.9189C121.481 63.9189 122.382 63.0183 122.382 61.9073C122.382 60.7962 121.481 59.8955 120.37 59.8955Z" fill="#FCB35E"/>
<path d="M90.6973 59.8955C89.5863 59.8955 88.6855 60.7962 88.6855 61.9073C88.6855 63.0183 89.5863 63.9189 90.6973 63.9189C91.8084 63.9189 92.709 63.0183 92.709 61.9073C92.709 60.7962 91.8084 59.8955 90.6973 59.8955Z" fill="white"/>
<path d="M59.1796 61.9073C59.1796 60.7337 60.0178 59.8955 61.1913 59.8955C62.3649 59.8955 63.2031 60.7337 63.2031 61.9073C63.2031 63.0808 62.3649 63.9189 61.1913 63.9189C60.0178 63.9189 59.1796 63.0808 59.1796 61.9073Z" fill="#FCB35E"/>
<path d="M31.5175 59.8955C30.4065 59.8955 29.5059 60.7962 29.5059 61.9073C29.5059 63.0183 30.4065 63.9189 31.5175 63.9189C32.6286 63.9189 33.5293 63.0183 33.5293 61.9073C33.5293 60.7962 32.6286 59.8955 31.5175 59.8955Z" fill="#FCB35E"/>
<path d="M2.01257 59.8955C0.901476 59.8955 0.000732625 60.7962 0.000732723 61.9073C0.00073282 63.0183 0.901476 63.9189 2.01257 63.9189C3.12367 63.9189 4.02441 63.0183 4.02441 61.9073C4.02441 60.7962 3.12367 59.8955 2.01257 59.8955Z" fill="white"/>
<path d="M238.728 40.1211C237.617 40.1211 236.717 41.0217 236.717 42.1328C236.717 43.2438 237.617 44.1445 238.728 44.1445C239.84 44.1445 240.74 43.2438 240.74 42.1328C240.74 41.0217 239.84 40.1211 238.728 40.1211Z" fill="#FCB35E"/>
<path d="M209.223 40.1211C208.112 40.1211 207.211 41.0217 207.211 42.1328C207.211 43.2438 208.112 44.1445 209.223 44.1445C210.334 44.1445 211.234 43.2438 211.234 42.1328C211.234 41.0217 210.334 40.1211 209.223 40.1211Z" fill="white"/>
<path d="M179.55 40.1211C178.439 40.1211 177.538 41.0217 177.538 42.1328C177.538 43.2438 178.439 44.1445 179.55 44.1445C180.661 44.1445 181.562 43.2438 181.562 42.1328C181.562 41.0217 180.661 40.1211 179.55 40.1211Z" fill="#FCB35E"/>
<path d="M150.044 40.1211C148.933 40.1211 148.032 41.0217 148.032 42.1328C148.032 43.2438 148.933 44.1445 150.044 44.1445C151.155 44.1445 152.056 43.2438 152.056 42.1328C152.056 41.0217 151.155 40.1211 150.044 40.1211Z" fill="#FCB35E"/>
<path d="M120.37 40.1211C119.259 40.1211 118.359 41.0217 118.359 42.1328C118.359 43.2438 119.259 44.1445 120.37 44.1445C121.481 44.1445 122.382 43.2438 122.382 42.1328C122.382 41.0217 121.481 40.1211 120.37 40.1211Z" fill="#FCB35E"/>
<path d="M90.6973 40.1211C89.5863 40.1211 88.6855 41.0217 88.6855 42.1328C88.6855 43.2438 89.5863 44.1445 90.6973 44.1445C91.8084 44.1445 92.709 43.2438 92.709 42.1328C92.709 41.0217 91.8084 40.1211 90.6973 40.1211Z" fill="#FCB35E"/>
<path d="M59.1796 42.1328C59.1796 40.9593 60.0178 40.1211 61.1913 40.1211C62.3649 40.1211 63.2031 40.9593 63.2031 42.1328C63.2031 43.3063 62.3649 44.1445 61.1913 44.1445C60.0178 44.1445 59.1796 43.1386 59.1796 42.1328Z" fill="white"/>
<path d="M31.5175 40.1211C30.4065 40.1211 29.5059 41.0217 29.5059 42.1328C29.5059 43.2438 30.4065 44.1445 31.5175 44.1445C32.6286 44.1445 33.5293 43.2438 33.5293 42.1328C33.5293 41.0217 32.6286 40.1211 31.5175 40.1211Z" fill="#FCB35E"/>
<path d="M2.01257 40.1211C0.901476 40.1211 0.000732625 41.0217 0.000732723 42.1328C0.00073282 43.2438 0.901476 44.1445 2.01257 44.1445C3.12367 44.1445 4.02441 43.2438 4.02441 42.1328C4.02441 41.0217 3.12367 40.1211 2.01257 40.1211Z" fill="#FCB35E"/>
<path d="M238.728 20.1797C237.617 20.1797 236.717 21.0803 236.717 22.1914C236.717 23.3024 237.617 24.2031 238.728 24.2031C239.84 24.2031 240.74 23.3024 240.74 22.1914C240.74 21.0803 239.84 20.1797 238.728 20.1797Z" fill="#FCB35E"/>
<path d="M209.223 20.1797C208.112 20.1797 207.211 21.0803 207.211 22.1914C207.211 23.3024 208.112 24.2031 209.223 24.2031C210.334 24.2031 211.234 23.3024 211.234 22.1914C211.234 21.0803 210.334 20.1797 209.223 20.1797Z" fill="#FCB35E"/>
<path d="M179.55 20.1797C178.439 20.1797 177.538 21.0803 177.538 22.1914C177.538 23.3024 178.439 24.2031 179.55 24.2031C180.661 24.2031 181.562 23.3024 181.562 22.1914C181.562 21.0803 180.661 20.1797 179.55 20.1797Z" fill="white"/>
<path d="M150.044 20.1797C148.933 20.1797 148.032 21.0803 148.032 22.1914C148.032 23.3024 148.933 24.2031 150.044 24.2031C151.155 24.2031 152.056 23.3024 152.056 22.1914C152.056 21.0803 151.155 20.1797 150.044 20.1797Z" fill="#FCB35E"/>
<path d="M120.37 20.1797C119.259 20.1797 118.359 21.0803 118.359 22.1914C118.359 23.3024 119.259 24.2031 120.37 24.2031C121.481 24.2031 122.382 23.3024 122.382 22.1914C122.382 21.0803 121.481 20.1797 120.37 20.1797Z" fill="white"/>
<path d="M90.6973 20.1797C89.5863 20.1797 88.6855 21.0803 88.6855 22.1914C88.6855 23.3024 89.5863 24.2031 90.6973 24.2031C91.8084 24.2031 92.709 23.3024 92.709 22.1914C92.709 21.0803 91.8084 20.1797 90.6973 20.1797Z" fill="#FCB35E"/>
<path d="M59.1796 22.1914C59.1796 21.0179 60.0178 20.1797 61.1913 20.1797C62.3649 20.1797 63.2031 21.0179 63.2031 22.1914C63.2031 23.3649 62.3649 24.2031 61.1913 24.2031C60.0178 24.2031 59.1796 23.3649 59.1796 22.1914Z" fill="#FCB35E"/>
<path d="M31.5175 20.1797C30.4065 20.1797 29.5059 21.0803 29.5059 22.1914C29.5059 23.3024 30.4065 24.2031 31.5175 24.2031C32.6286 24.2031 33.5293 23.3024 33.5293 22.1914C33.5293 21.0803 32.6286 20.1797 31.5175 20.1797Z" fill="#FCB35E"/>
<path d="M2.01257 20.1797C0.901476 20.1797 0.000732625 21.0803 0.000732723 22.1914C0.00073282 23.3024 0.901476 24.2031 2.01257 24.2031C3.12367 24.2031 4.02441 23.3024 4.02441 22.1914C4.02441 21.0803 3.12367 20.1797 2.01257 20.1797Z" fill="#FCB35E"/>
<path d="M238.728 0.237794C237.617 0.237794 236.717 1.13848 236.717 2.24951C236.717 3.36054 237.617 4.26123 238.728 4.26123C239.84 4.26123 240.74 3.36054 240.74 2.24951C240.74 1.13848 239.84 0.237794 238.728 0.237794Z" fill="#FCB35E"/>
<path d="M209.223 0.237794C208.112 0.237794 207.211 1.13848 207.211 2.24951C207.211 3.36054 208.112 4.26123 209.223 4.26123C210.334 4.26123 211.234 3.36054 211.234 2.24951C211.234 1.13848 210.334 0.237794 209.223 0.237794Z" fill="#FCB35E"/>
<path d="M179.55 0.237794C178.439 0.237794 177.538 1.13848 177.538 2.24951C177.538 3.36054 178.439 4.26123 179.55 4.26123C180.661 4.26123 181.562 3.36054 181.562 2.24951C181.562 1.13848 180.661 0.237794 179.55 0.237794Z" fill="#FCB35E"/>
<path d="M150.044 0.237794C148.933 0.237794 148.032 1.13848 148.032 2.24951C148.032 3.36054 148.933 4.26123 150.044 4.26123C151.155 4.26123 152.056 3.36054 152.056 2.24951C152.056 1.13848 151.155 0.237794 150.044 0.237794Z" fill="#FCB35E"/>
<path d="M120.37 0.237794C119.259 0.237794 118.359 1.13848 118.359 2.24951C118.359 3.36054 119.259 4.26123 120.37 4.26123C121.481 4.26123 122.382 3.36054 122.382 2.24951C122.382 1.13848 121.481 0.237794 120.37 0.237794Z" fill="#FCB35E"/>
<path d="M90.6973 0.237794C89.5863 0.237794 88.6855 1.13848 88.6855 2.24951C88.6855 3.36054 89.5863 4.26123 90.6973 4.26123C91.8084 4.26123 92.709 3.36054 92.709 2.24951C92.709 1.13848 91.8084 0.237794 90.6973 0.237794Z" fill="#FCB35E"/>
<path d="M59.1796 2.24951C59.1796 1.07602 60.0178 0.237794 61.1913 0.237794C62.3649 0.237794 63.2031 1.07602 63.2031 2.24951C63.2031 3.423 62.3649 4.26123 61.1913 4.26123C60.0178 4.26123 59.1796 3.423 59.1796 2.24951Z" fill="#FCB35E"/>
<path d="M31.5175 0.237794C30.4065 0.237794 29.5059 1.13848 29.5059 2.24951C29.5059 3.36054 30.4065 4.26123 31.5175 4.26123C32.6286 4.26123 33.5293 3.36054 33.5293 2.24951C33.5293 1.13848 32.6286 0.237794 31.5175 0.237794Z" fill="white"/>
<path d="M2.01257 0.237794C0.901476 0.237794 0.000732625 1.13848 0.000732723 2.24951C0.00073282 3.36054 0.901476 4.26123 2.01257 4.26123C3.12367 4.26123 4.02441 3.36054 4.02441 2.24951C4.02441 1.13848 3.12367 0.237794 2.01257 0.237794Z" fill="white"/>
</g>
</svg>
