<svg width="105" height="72" viewBox="0 0 105 72" fill="none" xmlns="http://www.w3.org/2000/svg">
<g opacity="0.4">
<path d="M2.27112 4.5437C3.52541 4.5437 4.54224 3.52653 4.54224 2.27182C4.54224 1.01711 3.52541 0 2.27112 0C1.01683 0 0 1.01711 0 2.27182C0 3.52653 1.01683 4.5437 2.27112 4.5437Z" fill="#FCB35E"/>
<path d="M35.5807 4.5437C36.835 4.5437 37.8517 3.52653 37.8517 2.27182C37.8517 1.01711 36.835 0 35.5807 0C34.3264 0 33.3096 1.01711 33.3096 2.27182C33.3096 3.52653 34.3264 4.5437 35.5807 4.5437Z" fill="#FCB35E"/>
<path d="M69.0786 4.5437C70.3328 4.5437 71.3496 3.52653 71.3496 2.27182C71.3496 1.01711 70.3328 0 69.0786 0C67.8243 0 66.8076 1.01711 66.8076 2.27182C66.8076 3.52653 67.8243 4.5437 69.0786 4.5437Z" fill="#FCB35E"/>
<path d="M102.388 4.5437C103.643 4.5437 104.659 3.52653 104.659 2.27182C104.659 1.01711 103.643 0 102.388 0C101.134 0 100.117 1.01711 100.117 2.27182C100.117 3.52653 101.134 4.5437 102.388 4.5437Z" fill="#FCB35E"/>
<path d="M2.27112 26.8835C3.52541 26.8835 4.54224 25.8664 4.54224 24.6117C4.54224 23.357 3.52541 22.3398 2.27112 22.3398C1.01683 22.3398 0 23.357 0 24.6117C0 25.8664 1.01683 26.8835 2.27112 26.8835Z" fill="#FCB35E"/>
<path d="M35.5807 26.8835C36.835 26.8835 37.8517 25.8664 37.8517 24.6117C37.8517 23.357 36.835 22.3398 35.5807 22.3398C34.3264 22.3398 33.3096 23.357 33.3096 24.6117C33.3096 25.8664 34.3264 26.8835 35.5807 26.8835Z" fill="white"/>
<path d="M69.0786 26.8835C70.3328 26.8835 71.3496 25.8664 71.3496 24.6117C71.3496 23.357 70.3328 22.3398 69.0786 22.3398C67.8243 22.3398 66.8076 23.357 66.8076 24.6117C66.8076 25.8664 67.8243 26.8835 69.0786 26.8835Z" fill="#FCB35E"/>
<path d="M102.388 26.8835C103.643 26.8835 104.659 25.8664 104.659 24.6117C104.659 23.357 103.643 22.3398 102.388 22.3398C101.134 22.3398 100.117 23.357 100.117 24.6117C100.117 25.8664 101.134 26.8835 102.388 26.8835Z" fill="#FCB35E"/>
<path d="M2.27112 49.4126C3.52541 49.4126 4.54224 48.3955 4.54224 47.1408C4.54224 45.8861 3.52541 44.8689 2.27112 44.8689C1.01683 44.8689 0 45.8861 0 47.1408C0 48.3955 1.01683 49.4126 2.27112 49.4126Z" fill="#FCB35E"/>
<path d="M35.5807 49.4126C36.835 49.4126 37.8517 48.3955 37.8517 47.1408C37.8517 45.8861 36.835 44.8689 35.5807 44.8689C34.3264 44.8689 33.3096 45.8861 33.3096 47.1408C33.3096 48.3955 34.3264 49.4126 35.5807 49.4126Z" fill="#FCB35E"/>
<path d="M69.0786 49.4126C70.3328 49.4126 71.3496 48.3955 71.3496 47.1408C71.3496 45.8861 70.3328 44.8689 69.0786 44.8689C67.8243 44.8689 66.8076 45.8861 66.8076 47.1408C66.8076 48.3955 67.8243 49.4126 69.0786 49.4126Z" fill="white"/>
<path d="M102.388 49.4126C103.643 49.4126 104.659 48.3955 104.659 47.1408C104.659 45.8861 103.643 44.8689 102.388 44.8689C101.134 44.8689 100.117 45.8861 100.117 47.1408C100.117 48.3955 101.134 49.4126 102.388 49.4126Z" fill="#FCB35E"/>
<path d="M2.27112 71.9417C3.52541 71.9417 4.54224 70.9245 4.54224 69.6698C4.54224 68.4151 3.52541 67.3979 2.27112 67.3979C1.01683 67.3979 0 68.4151 0 69.6698C0 70.9245 1.01683 71.9417 2.27112 71.9417Z" fill="#FCB35E"/>
<path d="M35.5807 71.9417C36.835 71.9417 37.8517 70.9245 37.8517 69.6698C37.8517 68.4151 36.835 67.3979 35.5807 67.3979C34.3264 67.3979 33.3096 68.4151 33.3096 69.6698C33.3096 70.9245 34.3264 71.9417 35.5807 71.9417Z" fill="#FCB35E"/>
<path d="M69.0786 71.9417C70.3328 71.9417 71.3496 70.9245 71.3496 69.6698C71.3496 68.4151 70.3328 67.3979 69.0786 67.3979C67.8243 67.3979 66.8076 68.4151 66.8076 69.6698C66.8076 70.9245 67.8243 71.9417 69.0786 71.9417Z" fill="#FCB35E"/>
<path d="M102.388 71.9417C103.643 71.9417 104.659 70.9245 104.659 69.6698C104.659 68.4151 103.643 67.3979 102.388 67.3979C101.134 67.3979 100.117 68.4151 100.117 69.6698C100.117 70.9245 101.134 71.9417 102.388 71.9417Z" fill="#FCB35E"/>
</g>
</svg>
