<svg width="25" height="26" viewBox="0 0 25 26" fill="none" xmlns="http://www.w3.org/2000/svg">
<path fill-rule="evenodd" clip-rule="evenodd" d="M7.8125 0.112305H17.1875C21.5016 0.112305 25 3.60801 25 7.9187V17.2864C25 21.5971 21.5016 25.0928 17.1875 25.0928H7.8125C3.49844 25.0928 0 21.5971 0 17.2864V7.9187C0 3.60801 3.49844 0.112305 7.8125 0.112305ZM17.1875 22.751C20.2031 22.751 22.6562 20.2997 22.6562 17.2864V7.91864C22.6562 4.90534 20.2031 2.4541 17.1875 2.4541H7.8125C4.79688 2.4541 2.34375 4.90534 2.34375 7.91864V17.2864C2.34375 20.2997 4.79688 22.751 7.8125 22.751H17.1875Z" fill="white"/>
<path fill-rule="evenodd" clip-rule="evenodd" d="M6.25 12.6021C6.25 9.15292 9.04844 6.35645 12.5 6.35645C15.9516 6.35645 18.75 9.15292 18.75 12.6021C18.75 16.0512 15.9516 18.8477 12.5 18.8477C9.04844 18.8477 6.25 16.0512 6.25 12.6021ZM8.59375 12.6016C8.59375 14.7531 10.3469 16.5049 12.5 16.5049C14.6531 16.5049 16.4062 14.7531 16.4062 12.6016C16.4062 10.4485 14.6531 8.69824 12.5 8.69824C10.3469 8.69824 8.59375 10.4485 8.59375 12.6016Z" fill="white"/>
<ellipse cx="19.2186" cy="5.88867" rx="0.832825" ry="0.832031" fill="white"/>
</svg>
