<svg width="30" height="23" viewBox="0 0 30 23" fill="none" xmlns="http://www.w3.org/2000/svg">
<path d="M26.2086 0.109375H3.79141C1.70087 0.109375 0 1.80909 0 3.89822V18.2805C0 20.3696 1.70087 22.0693 3.79141 22.0693H26.2086C28.2991 22.0693 30 20.3696 30 18.2805V3.89822C30 1.80909 28.2991 0.109375 26.2086 0.109375ZM25.6163 2.55337L15 10.7487L4.38375 2.55337H25.6163ZM26.2086 19.6255H3.79141C3.0494 19.6255 2.44565 19.0222 2.44565 18.2807V4.14555L14.2524 13.26C14.4726 13.43 14.7364 13.5149 15 13.5149C15.2636 13.5149 15.5274 13.43 15.7476 13.26L27.5543 4.14555V18.2805C27.5543 19.0222 26.9506 19.6255 26.2086 19.6255Z" fill="white"/>
</svg>
