<svg width="39" height="33" viewBox="0 0 39 33" fill="none" xmlns="http://www.w3.org/2000/svg">
<path opacity="0.3" d="M9.29 32.94C6.65 32.94 4.52 31.92 2.9 29.88C1.34 27.78 0.560001 24.87 0.560001 21.15C0.560001 16.53 1.73 12.42 4.07 8.81999C6.47 5.21999 9.83 2.34 14.15 0.179999L16.85 5.22C13.97 6.78 11.72 8.7 10.1 10.98C8.48 13.2 7.58 15.84 7.4 18.9C8.18 18.6 8.9 18.45 9.56 18.45C11.6 18.45 13.25 19.11 14.51 20.43C15.77 21.69 16.4 23.34 16.4 25.38C16.4 27.66 15.74 29.49 14.42 30.87C13.1 32.25 11.39 32.94 9.29 32.94ZM30.8 32.94C28.16 32.94 26.03 31.92 24.41 29.88C22.85 27.78 22.07 24.87 22.07 21.15C22.07 16.53 23.24 12.42 25.58 8.81999C27.98 5.21999 31.34 2.34 35.66 0.179999L38.36 5.22C35.48 6.78 33.23 8.7 31.61 10.98C29.99 13.2 29.09 15.84 28.91 18.9C29.69 18.6 30.41 18.45 31.07 18.45C33.11 18.45 34.76 19.11 36.02 20.43C37.28 21.69 37.91 23.34 37.91 25.38C37.91 27.66 37.25 29.49 35.93 30.87C34.61 32.25 32.9 32.94 30.8 32.94Z" fill="url(#paint0_linear_134_1287)"/>
<defs>
<linearGradient id="paint0_linear_134_1287" x1="44.8143" y1="49" x2="-57.9042" y2="35.3551" gradientUnits="userSpaceOnUse">
<stop stop-color="#4B19F0"/>
<stop offset="1" stop-color="#F09A19"/>
</linearGradient>
</defs>
</svg>
